<svg width="40" height="40" viewBox="0 0 40 40" fill="none" xmlns="http://www.w3.org/2000/svg">
<rect width="40" height="40" fill="#262D2A"/>
<path d="M17 19H18H18.5" stroke="#262D2A" stroke-width="2"/>
<path d="M21 19H22H22.5" stroke="#262D2A" stroke-width="2"/>
<path d="M25 19H26H26.5" stroke="#262D2A" stroke-width="2"/>
<path d="M33 18.1667C33.0057 20.3665 32.4918 22.5365 31.5 24.5C30.3241 26.853 28.5162 28.832 26.2791 30.2155C24.0419 31.599 21.4637 32.3324 18.8333 32.3334C16.6336 32.3391 14.4635 31.8252 12.5 30.8334L3 34L6.16667 24.5C5.17489 22.5365 4.66093 20.3665 4.66667 18.1667C4.66768 15.5363 5.40102 12.9581 6.78453 10.721C8.16804 8.4838 10.1471 6.67599 12.5 5.50005C14.4635 4.50827 16.6336 3.99431 18.8333 4.00005H19.6667C23.1406 4.1917 26.4217 5.65798 28.8819 8.11815C31.3421 10.5783 32.8083 13.8595 33 17.3334V18.1667Z" fill="white" stroke="white" stroke-width="2" stroke-linecap="round" stroke-linejoin="round"/>
</svg>
